# xmcd CD database file
# Copyright (C) 1995-1998 Ti Kan
#
# Track frame offsets:
#	150
#	19913
#	41739
#	60302
#	80853
#	98776
#	120409
#	135312
#	156314
#	170781
#	188411
#	214659
#	232285
#	255836
#	268885
#	280116
#	294088
#
# Disc length: 4381 seconds
#
# Revision: 1
# Processed by: cddbd v1.4b41PL1 Copyright (c) Steve Scherf et al.
# Submitted via: CDex 1.30
#
DISCID=ed111b11
DTITLE=Various Artist - Blues Way 3
DYEAR=1998
DGENRE=Blues
TTITLE0=Ry Cooder- Down In Missisipi
TTITLE1=Paul Rodgers- Muddy Water Blues
TTITLE2=John Mayall- Rot At Home
TTITLE3=Alvin Lee- Real Life Blues
TTITLE4=Savoy Brown- Baby Please
TTITLE5=Koko Taylor- Come To Mama
TTITLE6=Luther Allison- Night Life
TTITLE7=RobinTrower- I Want You To Love Me
TTITLE8=Corey Harris- Hight Fever Blues
TTITLE9=Taj Mahal- Ohh Poo Poh Doo
TTITLE10=Ry Cooder- Women Will Rule The World
TTITLE11=B.B.King and Heavy D- Kept It Coming
TTITLE12=Eric Clapton- Going Down Slow
TTITLE13=Peter Green- Bandit
TTITLE14=Rhytm Kings- Bad To Be Alone
TTITLE15=Buddy Guy and Junior Wells- My Home`s In The Delta
TTITLE16=Terry Evans- Down In Missisipi
EXTD=\nYEAR: 1998  ID3G:   0
EXTT0=
EXTT1=
EXTT2=
EXTT3=
EXTT4=
EXTT5=
EXTT6=
EXTT7=
EXTT8=
EXTT9=
EXTT10=
EXTT11=
EXTT12=
EXTT13=
EXTT14=
EXTT15=
EXTT16=
PLAYORDER=
